<svg width="12" height="12" viewBox="0 0 12 12" fill="none" xmlns="http://www.w3.org/2000/svg">
<path d="M5.19257 5.84409C4.72057 5.84409 4.28057 5.72409 3.87257 5.48409C3.46457 5.24409 3.14057 4.92209 2.90057 4.51809C2.66058 4.11409 2.54058 3.67609 2.54058 3.20409C2.54058 2.73209 2.66058 2.28809 2.90057 1.87209C3.14057 1.45609 3.46057 1.12809 3.86057 0.888095C4.27657 0.632094 4.72457 0.504094 5.20457 0.504094C5.68457 0.504094 6.13257 0.624095 6.54857 0.864095C6.94857 1.10409 7.26457 1.42609 7.49657 1.83009C7.72857 2.23409 7.84457 2.67209 7.84457 3.14409C7.84457 3.61609 7.72657 4.06009 7.49057 4.47609C7.25457 4.89209 6.94057 5.22009 6.54857 5.46009C6.13257 5.71609 5.68057 5.84409 5.19257 5.84409ZM5.19257 1.29609C4.84857 1.29609 4.53257 1.38209 4.24458 1.55409C3.95657 1.72609 3.72657 1.95809 3.55457 2.25009C3.38258 2.54209 3.29658 2.86009 3.29658 3.20409C3.29658 3.54809 3.38258 3.86609 3.55457 4.15809C3.72657 4.45009 3.95657 4.68009 4.24458 4.84809C4.53257 5.01609 4.84857 5.10009 5.19257 5.10009C5.53657 5.10009 5.85457 5.01409 6.14657 4.84209C6.43857 4.67009 6.66857 4.44009 6.83657 4.15209C7.00457 3.86409 7.08857 3.54809 7.08857 3.20409C7.08857 2.86009 7.00457 2.54209 6.83657 2.25009C6.66857 1.95809 6.43857 1.72609 6.14657 1.55409C5.85457 1.38209 5.53657 1.29609 5.19257 1.29609ZM8.84057 11.4961H1.54458C1.27258 11.4961 1.01058 11.4301 0.758575 11.2981C0.506575 11.1661 0.318575 11.0001 0.194575 10.8001C0.0705754 10.6001 0.00857544 10.3921 0.00857544 10.1761C0.00857544 9.96009 0.0685754 9.75209 0.188575 9.55209C0.556575 8.84809 1.08458 8.28409 1.77258 7.86009C2.67658 7.31609 3.81657 7.04409 5.19257 7.04409C6.56857 7.04409 7.70857 7.31609 8.61257 7.86009C9.30057 8.28409 9.82857 8.84809 10.1966 9.55209C10.2926 9.75209 10.3406 9.96009 10.3406 10.1761C10.3406 10.3921 10.2926 10.6001 10.1966 10.8001C10.0686 11.0001 9.87857 11.1661 9.62657 11.2981C9.37457 11.4301 9.11257 11.4961 8.84057 11.4961ZM5.19257 7.80009C3.99257 7.80009 3.00058 8.03209 2.21658 8.49609C1.60858 8.84809 1.15258 9.31609 0.848575 9.90009C0.792575 9.97209 0.764575 10.0541 0.764575 10.1461C0.764575 10.2381 0.792575 10.3241 0.848575 10.4041C0.928575 10.5081 1.02858 10.5921 1.14858 10.6561C1.26858 10.7201 1.40058 10.7521 1.54458 10.7521H8.79257C8.94457 10.7521 9.08657 10.7181 9.21857 10.6501C9.35057 10.5821 9.44057 10.5001 9.48857 10.4041C9.54457 10.3241 9.57257 10.2461 9.57257 10.1701C9.57257 10.0941 9.54457 10.0041 9.48857 9.90009C9.32057 9.54009 9.08057 9.22009 8.76857 8.94009C8.39257 8.59609 7.93257 8.32809 7.38857 8.13609C6.74857 7.91209 6.01657 7.80009 5.19257 7.80009Z" fill="white"/>
</svg>
