<svg width="12" height="12" viewBox="0 0 12 12" fill="none" xmlns="http://www.w3.org/2000/svg">
<g clip-path="url(#clip0_143_8763)">
<path d="M10.917 11.6521C10.845 11.6521 10.745 11.6201 10.617 11.5561L8.109 9.0481C7.669 9.4081 7.185 9.6881 6.657 9.8881C6.097 10.0961 5.517 10.2001 4.917 10.2001C4.013 10.2001 3.181 9.9801 2.421 9.5401C1.677 9.1161 1.093 8.5361 0.669003 7.8001C0.229003 7.0401 0.00900269 6.2081 0.00900269 5.3041C0.00900269 4.4001 0.229003 3.5641 0.669003 2.7961C1.093 2.0521 1.677 1.4601 2.421 1.0201C3.181 0.5721 4.013 0.3481 4.917 0.3481C5.821 0.3481 6.653 0.568099 7.413 1.0081C8.149 1.4321 8.729 2.0121 9.153 2.7481C9.593 3.5081 9.813 4.3401 9.813 5.2441C9.813 5.8521 9.709 6.4361 9.501 6.9961C9.301 7.5241 9.021 8.0081 8.661 8.4481L11.157 10.9561C11.237 11.0281 11.277 11.1181 11.277 11.2261C11.277 11.3341 11.237 11.4241 11.157 11.4961C11.109 11.6001 11.029 11.6521 10.917 11.6521ZM4.917 1.1521C4.157 1.1521 3.461 1.3361 2.829 1.7041C2.213 2.0641 1.725 2.5521 1.365 3.1681C0.997003 3.8001 0.813003 4.4921 0.813003 5.2441C0.813003 6.0201 0.993003 6.7241 1.353 7.3561C1.705 7.9721 2.189 8.4561 2.805 8.8081C3.437 9.1681 4.141 9.3481 4.917 9.3481C5.477 9.3481 6.009 9.2441 6.513 9.0361C6.993 8.8361 7.425 8.5561 7.809 8.1961L7.857 8.1481L7.917 8.1001C8.277 7.7081 8.553 7.2721 8.745 6.7921C8.953 6.2881 9.057 5.7561 9.057 5.1961C9.057 4.4601 8.869 3.7801 8.493 3.1561C8.125 2.5401 7.629 2.0561 7.005 1.7041C6.365 1.3361 5.669 1.1521 4.917 1.1521Z" fill="#E0E7F1"/>
</g>
<defs>
<clipPath id="clip0_143_8763">
<rect width="12" height="12" fill="white" transform="matrix(1 0 0 -1 0 12)"/>
</clipPath>
</defs>
</svg>
