<svg width="12" height="12" viewBox="0 0 12 12" fill="none" xmlns="http://www.w3.org/2000/svg">
<g clip-path="url(#clip0_143_8803)">
<path d="M8.8872 6.74853C8.43676 7.19952 7.73318 7.90383 7.14404 8.49709C6.44375 8.03869 5.81076 7.53286 5.30173 7.02383C4.67312 6.39523 3.88705 5.50021 3.46225 4.86621C4.00159 4.33071 4.70691 3.62631 5.22445 3.10922L2.11524 0L0.563877 1.52344L0.561588 1.52572C0.127445 1.95987 -0.0563925 2.55249 0.0152016 3.28711C0.244175 5.63616 3.11673 9.03872 5.65603 10.7429C7.12619 11.7295 9.23931 12.6429 10.4892 11.3929C11.3967 10.4855 11.7436 10.1158 11.7579 10.1005L11.9907 9.85207L8.8872 6.74853ZM9.99169 10.8954C9.0455 11.8415 7.16903 10.9109 6.04806 10.1586C3.69168 8.57711 0.922122 5.33816 0.715488 3.21881C0.665317 2.70446 0.780582 2.30255 1.05799 2.02441L2.11075 0.9906L4.229 3.10894C3.15472 4.18158 2.83109 4.50128 2.57373 4.75607L2.71024 4.99136C3.12479 5.70547 4.08627 6.80346 4.80423 7.52142C5.59176 8.30895 6.40017 8.86495 7.24548 9.39403L7.44351 9.19417C7.87802 8.75573 8.50945 8.12264 8.88748 7.74398L11.0087 9.86516C10.8122 10.068 10.484 10.403 9.99169 10.8954Z" fill="white"/>
</g>
<defs>
<clipPath id="clip0_143_8803">
<rect width="12" height="12" fill="white"/>
</clipPath>
</defs>
</svg>
