<svg width="21" height="21" viewBox="0 0 21 21" fill="none" xmlns="http://www.w3.org/2000/svg">
<path d="M9.81656 19.1731C9.71856 19.1731 9.62056 19.1241 9.52256 19.0261L1.41656 11.4661C0.70256 10.6121 0.26156 9.6601 0.0935601 8.6101C-0.0744399 7.6021 0.0270601 6.6151 0.39806 5.6491C0.76906 4.6831 1.37456 3.8501 2.21456 3.15009C2.92856 2.5481 3.74056 2.1526 4.65056 1.9636C5.56056 1.7746 6.47056 1.8026 7.38056 2.0476C8.29056 2.2926 9.10256 2.7441 9.81656 3.4021C10.5306 2.7441 11.3391 2.2926 12.2421 2.0476C13.1451 1.8026 14.0551 1.7746 14.9721 1.9636C15.8891 2.1526 16.7396 2.5481 17.5236 3.15009C18.1256 3.6261 18.6191 4.2141 19.0041 4.9141C19.3891 5.6141 19.6236 6.3351 19.7076 7.0771C19.7916 7.8191 19.7251 8.5786 19.5081 9.3556C19.2911 10.1326 18.9516 10.8081 18.4896 11.3821L10.3416 18.8161C10.2716 18.8581 10.1946 18.9211 10.1106 19.0051C9.98456 19.1171 9.88656 19.1731 9.81656 19.1731ZM5.70056 3.2341C4.69256 3.2341 3.81756 3.5561 3.07556 4.2001C2.40356 4.7461 1.92056 5.3901 1.62656 6.1321C1.33256 6.8741 1.24856 7.6371 1.37456 8.4211C1.50056 9.2051 1.83656 9.9261 2.38256 10.5841L9.81656 17.5771L17.4396 10.5001C17.8176 10.0661 18.0836 9.5691 18.2376 9.0091C18.3916 8.4911 18.4406 7.9381 18.3846 7.3501C18.3286 6.8041 18.1501 6.2721 17.8491 5.7541C17.5481 5.2361 17.1456 4.7741 16.6416 4.3681C15.9696 3.8081 15.2276 3.4861 14.4156 3.4021C13.6596 3.3321 12.9106 3.4511 12.1686 3.7591C11.4686 4.0671 10.8596 4.5081 10.3416 5.0821C10.2576 5.2081 10.0966 5.2711 9.85856 5.2711C9.62056 5.2711 9.43156 5.2081 9.29156 5.0821C8.85756 4.4801 8.32906 4.0216 7.70606 3.7066C7.08306 3.3916 6.41456 3.2341 5.70056 3.2341Z" fill="#88A4F8"/>
</svg>
