<svg width="40" height="33" viewBox="0 0 40 33" fill="none" xmlns="http://www.w3.org/2000/svg">
<g clip-path="url(#clip0_301_264)">
<path d="M21.7588 27.5051C20.6692 27.2839 19.887 26.6273 19.2384 25.7804C18.8676 25.2969 18.5331 24.7863 18.1827 24.288C16.2024 24.4032 14.4297 23.818 12.8147 22.6976C12.6552 22.5867 12.4969 22.4697 12.3232 22.3866C11.9986 22.2313 11.775 22.3638 11.7485 22.7235C11.7288 22.9914 11.8157 23.2433 11.908 23.4922C12.4205 24.8731 13.2933 25.9849 14.4568 26.8725C14.8208 27.1503 15.2089 27.396 15.5852 27.6578C15.7084 27.7434 15.7916 27.8549 15.73 28.0114C15.6671 28.1715 15.5199 28.1881 15.3789 28.161C15.1892 28.1247 14.9982 28.0803 14.8184 28.012C12.7537 27.2279 11.1572 25.8925 10.0682 23.9628C9.94318 23.7416 9.81938 23.5088 9.54775 23.4589C8.94905 23.3493 8.35651 23.1805 7.73749 23.2279C8.65093 25.9751 10.3633 28.0613 12.9071 29.4508C14.4494 30.2934 16.0761 30.9297 17.7774 31.3732C18.4789 31.5561 19.1848 31.7064 19.9165 31.6411C20.2264 31.6134 20.5485 31.5592 20.6859 31.2364C20.8331 30.8909 20.5115 30.756 20.3212 30.5706C20.3015 30.5515 20.2793 30.5337 20.2602 30.5139C20.1574 30.4062 20.0853 30.2867 20.1882 30.1444C20.2769 30.0218 20.4062 29.9731 20.5559 30.0107C20.7499 30.0594 20.9088 30.1702 21.0505 30.307C21.2008 30.4517 21.3412 30.607 21.4983 30.7431C21.8672 31.0627 22.2374 31.0529 22.5725 30.7264C22.8916 30.4154 22.9297 29.9898 22.6606 29.6356C22.5688 29.5143 22.4518 29.4126 22.3532 29.2962C22.2565 29.1823 22.1253 29.0751 22.2331 28.8971C22.3243 28.7462 22.4696 28.7252 22.6292 28.7191C22.923 28.7074 23.0837 28.9618 23.3406 29.0745C23.3905 28.7653 23.2451 28.546 23.0696 28.3514C22.7105 27.9528 22.2941 27.6147 21.7601 27.5057L21.7588 27.5051Z" fill="#5B82F4"/>
<path d="M24.5041 19.854C24.2072 20.207 23.8173 20.4478 23.4404 20.7065C23.5124 20.8753 23.6633 20.8069 23.7668 20.8494C23.9337 20.9178 24.1321 20.948 24.1345 21.1826C24.137 21.4265 24.0311 21.6138 23.7884 21.6939C23.4872 21.7936 23.1644 21.8097 22.8977 21.6507C22.469 21.3958 22.0816 21.4235 21.6677 21.6631C21.5544 21.729 21.4022 21.7394 21.2655 21.7518C20.5959 21.8115 20.3514 21.5608 20.4161 20.8931C19.2125 20.696 18.227 20.1602 17.6265 19.0213C17.5864 19.2264 17.5649 19.3816 17.5908 19.5288C17.6388 19.8017 17.6985 20.0746 17.7842 20.3382C17.8698 20.6036 17.8722 20.7311 17.5255 20.6585C15.0346 20.1361 12.8153 18.058 12.6552 15.2252C12.4938 12.374 13.4676 9.82709 14.9336 7.46865C15.7602 6.13882 15.6284 4.37784 14.2283 3.46871C12.4439 2.61378 10.6232 2.56265 8.77044 3.22356C8.74457 3.2328 8.71808 3.25066 8.69221 3.25005C7.34699 3.22171 6.79141 4.2953 6.09786 5.14592C5.60326 5.75263 5.35134 6.50346 5.06616 7.2272C5.02119 7.34115 5.03782 7.52408 4.83456 7.52039C4.67811 8.07104 4.45945 8.58966 4.09974 9.04361C3.94637 9.23764 4.00981 9.38423 4.22662 9.50865C4.90539 9.89793 5.80406 9.72608 6.30174 9.09351C6.42246 8.93952 6.56228 8.81571 6.75815 8.93274C6.94417 9.04423 6.93123 9.24256 6.87087 9.41811C6.83699 9.51728 6.76062 9.61521 6.67808 9.68296C6.47297 9.85112 6.42739 10.0445 6.4588 10.3075C6.7292 12.565 8.50374 14.5391 10.7476 15.0257C11.0291 15.0866 11.1215 15.1883 11.1634 15.4716C11.5342 17.9779 12.7482 19.9341 14.9539 21.2473C16.3854 22.0998 17.9381 22.5759 19.5716 22.8272C19.7114 22.935 19.8956 23.0169 19.8272 23.2497C19.7595 23.4826 19.5587 23.4746 19.3844 23.4629C19.029 23.4395 18.9625 23.5713 19.1238 23.87C19.5285 24.6196 20.009 25.3132 20.6366 25.8946C21.34 26.5469 21.8204 26.6097 22.6544 26.1705C22.7524 26.1188 22.8503 26.0658 22.9519 26.0209C24.2848 25.4333 25.6153 24.8389 26.9543 24.2654C27.3621 24.0905 27.6873 23.9045 27.6306 23.3791C27.6122 23.2066 27.6799 23.0237 27.7175 22.8475C27.8226 22.3535 27.6354 22.1152 27.1557 22.1324C27.128 22.1336 27.0997 22.1361 27.0726 22.1324C26.8607 22.1053 26.541 22.154 26.493 21.9439C26.4511 21.7604 26.804 21.7844 26.9445 21.6544C28.5151 21.1364 29.8314 20.2643 30.7954 18.8969C31.5197 17.8701 31.8369 16.6992 31.9952 15.4778C32.034 15.1809 32.156 15.0392 32.4319 14.9598C33.1353 14.7571 33.7667 14.4054 34.3167 13.928C34.9468 13.3817 35.543 12.799 35.7537 11.9441C36.0604 11.0916 36.6228 10.2496 35.8215 9.36083C35.7094 9.2364 35.7802 9.0664 35.9231 8.96354C36.066 8.86068 36.2077 8.86376 36.3339 8.99557C36.4202 9.0855 36.5008 9.18097 36.5865 9.27151C36.9998 9.70452 37.83 9.83449 38.3573 9.55731C38.6511 9.40271 38.7503 9.20068 38.5094 8.93213C38.1208 8.49789 37.9859 7.9651 37.8861 7.41506C37.8325 7.11694 37.8319 6.80835 37.7062 6.5244C37.5073 6.72335 37.5091 6.47266 37.4728 6.40245C37.211 5.89614 36.8963 5.42494 36.5852 4.9482C35.7555 3.67566 34.4886 3.14842 33.0854 2.87987C32.1104 2.69323 31.1267 2.73758 30.1603 3.00675C29.1348 3.29255 28.2928 3.83581 27.6928 4.72893C27.3701 5.88813 27.3682 6.99499 28.2139 7.96571C28.2306 7.95155 28.2484 7.93799 28.2657 7.92506C28.2478 7.93799 28.2306 7.95155 28.2139 7.96571C28.3242 8.1893 28.4283 8.41597 28.5447 8.63648C29.7316 10.8791 30.5336 13.2197 30.4381 15.8036C30.395 16.969 30.0642 18.029 29.3152 18.9197C28.5669 19.8097 27.6627 20.5008 26.4597 20.6418C25.8432 20.7139 25.8592 20.6794 25.8863 20.0592C25.9337 18.9695 25.7489 17.9514 24.8484 17.2006C24.793 18.0931 24.7874 18.9917 24.5016 19.854M11.2835 13.1292C10.9583 13.1316 10.8739 12.9013 10.8394 12.6309C10.7858 12.2096 10.9022 11.8012 10.9269 11.386C10.8252 10.9118 10.606 11.2358 10.423 11.3115C10.1114 11.6367 9.82309 11.6447 9.56439 11.2998C9.06425 10.634 8.80678 9.88807 8.89363 9.04361C8.91272 8.85945 8.96816 8.69006 9.08211 8.5447C9.2287 8.35807 9.41164 8.23242 9.65802 8.32111C9.93396 8.42028 9.86928 8.65372 9.81754 8.85021C9.6537 9.47477 9.81385 10.0273 10.1569 10.5471C10.2986 10.4344 10.3165 10.2607 10.3596 10.1055C10.707 8.86807 11.3894 7.86162 12.4168 7.08922C12.5135 7.01654 12.6398 6.96665 12.6367 6.8139C12.1347 6.76524 11.6383 6.78741 11.148 6.91922C11.0279 6.95125 10.9028 6.97343 10.779 6.98143C10.5678 6.9956 10.383 6.93709 10.33 6.70303C10.2777 6.47267 10.362 6.29219 10.5825 6.19056C10.954 6.01995 11.35 5.94973 11.7535 5.91647C12.4698 5.85734 13.1714 5.9331 13.8403 6.1998C14.4297 6.43448 14.4932 6.72397 14.0947 7.20625C12.7876 8.78923 12.0072 10.6038 11.7319 12.6352C11.6937 12.9142 11.5995 13.1273 11.2829 13.1298L11.2835 13.1292ZM28.3685 7.85607C28.3685 7.85607 28.3728 7.85299 28.3753 7.85176C28.3728 7.85299 28.371 7.85484 28.3685 7.85607ZM28.7165 7.64234C28.7849 7.5943 28.8477 7.54071 28.9019 7.47665C28.8477 7.54071 28.7843 7.5943 28.7165 7.64234ZM32.6001 12.581C32.5095 12.8699 32.4017 13.1606 32.0272 13.123C31.6755 13.0879 31.6213 12.7959 31.5875 12.5101C31.3922 10.8643 30.7806 9.38238 29.8185 8.04209C29.6023 7.74089 29.3855 7.43231 29.0196 7.28509L29.0177 7.28633C28.9925 7.25615 28.9672 7.22535 28.9414 7.19517C28.517 6.62727 28.5804 6.38274 29.2327 6.16223C30.2786 5.80806 31.3288 5.8173 32.3783 6.1573C32.658 6.24785 32.8631 6.40614 32.7941 6.72643C32.7239 7.05473 32.4399 6.98575 32.2145 6.96419C31.8178 6.926 31.4242 6.86317 31.0288 6.8102C31.5105 7.36147 32.0377 7.8764 32.3611 8.55209C32.5237 8.89148 32.6512 9.24072 32.7522 9.60227C32.8163 9.83202 32.9216 10.0408 33.0965 10.209C33.2912 9.75811 33.232 9.2863 33.2074 8.81818C33.1951 8.58289 33.1963 8.35437 33.4889 8.30448C33.7574 8.2589 33.9441 8.38455 34.0266 8.64695C34.3284 9.60782 34.0666 10.4788 33.5572 11.2869C33.4051 11.5283 33.1304 11.6558 32.8538 11.3848C32.7374 11.3824 32.6229 11.3848 32.5317 11.4747C32.5711 11.8055 32.6112 12.1369 32.6506 12.4676C32.6339 12.5052 32.6136 12.5416 32.6013 12.581H32.6001ZM28.9266 7.44647C28.9488 7.41752 28.9691 7.38734 28.9869 7.35346C28.9691 7.38673 28.9488 7.41752 28.9266 7.44647Z" fill="#5B82F4"/>
<path d="M10.2968 29.4263C10.6275 29.1393 10.5271 28.9286 10.2161 28.6835C9.03346 27.7503 8.17976 26.5801 7.74244 25.1246C7.69933 24.9804 7.67346 24.8258 7.55705 24.7137C7.47389 24.8523 7.50161 25.0082 7.49052 25.1578C7.44618 25.7381 7.52317 26.3133 7.56505 26.8905C7.16654 26.3023 6.93864 25.6247 6.58385 25.0137C5.71722 23.5237 4.55062 22.3504 2.96087 21.6408C2.31105 21.3507 2.00924 21.4702 1.73268 22.0652C1.72098 22.6442 1.71236 23.2238 1.69449 23.8028C1.68957 23.9518 1.69203 24.1089 1.58978 24.2376C1.91993 25.9426 2.81058 27.3531 3.94762 28.617C5.00581 29.794 6.29867 30.5935 7.88411 30.8627C8.05658 30.8923 8.23828 30.9606 8.41259 30.7709C8.2814 30.6853 8.15513 30.6065 8.03317 30.5221C7.89335 30.4254 7.73875 30.317 7.83237 30.1205C7.92168 29.9333 8.11201 29.9647 8.27524 29.9936C8.57212 30.0466 8.79633 30.2449 9.03839 30.4044C9.2706 30.5572 9.50651 30.6662 9.8385 30.5517C9.76089 30.4796 9.72332 30.4445 9.68513 30.4094C9.57057 30.3034 9.34759 30.2381 9.4443 30.0318C9.53546 29.8372 9.74488 29.8002 9.94876 29.8193C10.2413 29.8464 10.4501 30.0355 10.6756 30.1975C10.779 30.272 10.853 30.5061 11.0396 30.3287C11.2373 30.1408 11.0975 29.9696 10.9731 29.8211C10.7969 29.6111 10.5068 29.584 10.2949 29.4269L10.2968 29.4263Z" fill="#5B82F4"/>
<path d="M9.76518 17.273C10.7907 21.1418 13.9524 23.746 17.9905 24.0638C17.8698 23.6234 17.6185 23.3524 17.1356 23.2797C16.6545 23.2077 16.2061 22.9988 15.762 22.8024C12.981 21.5692 11.0155 19.605 10.2783 16.5782C10.1723 16.1434 10.0596 15.8484 9.54898 15.8249C9.1634 15.8071 8.85789 15.4689 8.44952 15.4831C8.5567 15.9524 8.80862 16.3171 9.21699 16.5782C9.47753 16.7446 9.67833 16.9423 9.7658 17.273H9.76518Z" fill="#5B82F4"/>
<path d="M32.8618 19.4676C32.7891 19.3499 32.7232 19.2267 32.6419 19.1146C32.2668 18.5979 32.2181 18.6071 31.8849 19.1405C31.2918 20.0915 30.5945 20.9489 29.6324 21.5581C28.9961 21.9609 28.6956 22.5793 28.6075 23.2914C28.5576 23.6954 28.4966 24.1297 28.7374 24.5682C28.9271 24.3169 28.8914 24.0681 28.9598 23.8506C29.0362 23.6086 29.2099 23.539 29.4458 23.5599C29.7162 23.5839 29.6922 23.781 29.6823 23.9609C29.6694 24.1962 29.6256 24.4302 29.6219 24.6649C29.617 24.9298 29.548 25.2248 29.8474 25.3997C29.872 25.4324 29.896 25.4644 29.9207 25.497C30.0377 25.6018 30.0642 25.5463 30.1048 25.4207C30.1812 25.1848 30.2699 24.9489 30.3876 24.7314C30.4732 24.5737 30.6124 24.4284 30.8286 24.5066C31.0448 24.5848 31.1772 24.7351 31.1365 24.9846C31.1094 25.149 31.0694 25.311 31.046 25.4761C30.9801 25.9313 31.1883 26.1432 31.641 26.0606C32.1442 25.9695 32.3641 25.5931 32.5138 25.1515C32.6247 24.8238 32.5809 24.4567 32.7731 24.1506C32.8002 24.1223 32.8279 24.0939 32.855 24.0662C32.855 24.0662 32.855 24.0668 32.855 24.0674C33.4476 24.049 33.4968 24.0896 33.535 24.57C33.5467 24.7185 33.4537 24.9378 33.6958 24.979C33.9459 25.0215 34.0654 24.8423 34.1467 24.6366C34.2372 24.4068 34.3185 24.1007 34.3413 23.7933C34.3721 23.3807 34.3265 22.9865 34.3413 22.9692C34.236 21.6388 33.7026 20.4888 32.8624 19.4688M33.718 22.3391C33.7549 22.3502 33.7913 22.3865 33.827 22.4426C33.7919 22.3865 33.7549 22.3502 33.718 22.3391ZM34.1288 23.0234C34.1233 23.0136 34.1171 23.0031 34.1109 22.9908C34.1171 23.0031 34.1226 23.0136 34.1288 23.0234C34.1812 23.1096 34.2237 23.0998 34.2631 23.0622C34.223 23.0998 34.1805 23.1096 34.1288 23.0234Z" fill="#5B82F4"/>
<path d="M33.208 18.1643C33.2215 17.7381 33.1679 17.3266 32.9425 16.9534C32.7608 17.5373 32.8304 17.857 33.208 18.1643Z" fill="#5B82F4"/>
<path d="M17.9905 24.0644C13.953 23.746 10.7907 21.1424 9.76518 17.2736C9.67772 16.9435 9.47631 16.7458 9.21638 16.5789C8.80801 16.3177 8.5567 15.9531 8.44891 15.4837C8.3904 15.4073 8.33681 15.3088 8.22964 15.3119C7.6525 15.3297 7.40119 14.9558 7.22565 14.4883C7.15728 14.306 7.06181 14.1958 6.83514 14.2044C6.55858 14.2142 6.32699 14.0941 6.18902 13.8354C5.94017 14.104 5.6513 14.3233 5.3618 14.5419C5.18811 14.6731 5.01318 14.8037 4.84687 14.9441C5.01318 14.8037 5.18749 14.6731 5.3618 14.5419C5.65191 14.3233 5.94079 14.1034 6.18902 13.8354C6.1422 13.647 6.08677 13.4603 6.05166 13.27C5.99992 12.9898 5.8909 12.967 5.64637 13.1086C4.69782 13.6574 3.86937 14.3454 3.20169 15.2115C1.10009 17.9376 0.767479 20.9859 1.58976 24.2375C1.69139 24.1088 1.68955 23.9517 1.69447 23.8026C1.71234 23.2237 1.72096 22.6447 1.73266 22.0651C2.00922 21.4701 2.31103 21.35 2.96085 21.6407C4.5506 22.3503 5.7172 23.5236 6.58384 25.0136C6.93862 25.624 7.16652 26.3015 7.56503 26.8898C7.52253 26.3132 7.44616 25.7379 7.48989 25.1571C7.50098 25.008 7.47326 24.8522 7.55641 24.713C7.55826 24.3588 7.55641 24.0047 7.56319 23.6505C7.56627 23.4897 7.55395 23.3167 7.73627 23.2267C8.35529 23.1793 8.94783 23.3475 9.54653 23.4577C9.81816 23.5076 9.94258 23.7404 10.067 23.9616C11.156 25.8913 12.7531 27.2267 14.8172 28.0108C14.997 28.0791 15.1886 28.1235 15.3777 28.1598C15.5181 28.1869 15.6653 28.1703 15.7288 28.0102C15.7903 27.8543 15.7072 27.7428 15.584 27.6566C15.2077 27.3948 14.8196 27.1491 14.4556 26.8713C13.2915 25.9837 12.4193 24.8725 11.9068 23.491C11.8144 23.2428 11.7276 22.9902 11.7473 22.7223C11.7738 22.3626 11.998 22.2301 12.322 22.3854C12.4957 22.4685 12.6546 22.5862 12.8135 22.6964C14.4285 23.8168 16.2012 24.402 18.1814 24.2868C18.1574 24.1778 18.0675 24.1254 17.9893 24.0632L17.9905 24.0644ZM6.53641 24.0305C6.41568 24.0583 6.39228 23.9184 6.37195 23.8328C6.21796 23.1713 6.01655 22.5289 5.6205 21.924C5.93032 21.8501 6.00916 22.03 6.09847 22.1796C6.39412 22.6749 6.51054 23.2304 6.62757 23.7854C6.65097 23.895 6.63003 24.009 6.53579 24.0305H6.53641ZM9.71098 21.8563C9.6654 21.8544 9.58964 21.8175 9.58163 21.7836C9.50649 21.467 9.30631 21.1572 9.49232 20.7851C9.77689 21.0598 9.76457 21.3998 9.81508 21.7177C9.8274 21.7941 9.79537 21.86 9.71098 21.8563Z" fill="white"/>
<path d="M33.1168 15.9709C33.0583 16.3011 32.9998 16.6275 32.9419 16.9534C33.1673 17.3273 33.2215 17.7381 33.2074 18.1643C33.5369 18.5499 33.8664 18.9349 34.2194 19.3476C34.5169 17.9358 33.9989 16.3744 33.1162 15.9709H33.1168Z" fill="white"/>
<path d="M37.62 6.03149C36.993 2.64934 34.0851 0.740531 30.7405 1.54187C29.1428 1.92499 27.7704 2.68938 26.8145 4.08141C26.6593 4.22246 26.5041 4.36351 26.3488 4.50395C25.9965 4.34319 25.6559 4.14978 25.2906 4.02782C22.3711 3.05155 19.5143 3.0922 16.7555 4.58956C16.2584 3.87753 15.7601 3.16673 14.9982 2.70108C13.5403 1.69894 11.9327 1.22097 10.1643 1.38419C7.53607 1.62749 5.6211 3.34782 5.092 5.91754C4.98298 6.44663 4.91892 6.98497 4.83392 7.51899C5.03718 7.52269 5.02055 7.33975 5.06552 7.2258C5.3507 6.50207 5.60262 5.75123 6.09722 5.14453C6.79078 4.29391 7.34636 3.22094 8.69158 3.24865C8.71745 3.24865 8.74393 3.23141 8.7698 3.22217C10.6226 2.56126 12.4433 2.61177 14.2277 3.46731C15.6271 4.37645 15.7589 6.13743 14.9329 7.46725C13.4676 9.8257 12.4938 12.3726 12.6546 15.2238C12.8147 18.0566 15.0339 20.1348 17.5248 20.6571C17.8722 20.7298 17.8698 20.6023 17.7835 20.3368C17.6985 20.0738 17.6388 19.8003 17.5901 19.5274C17.5642 19.3802 17.5858 19.225 17.6258 19.0199C18.227 20.1582 19.2119 20.694 20.4155 20.8917C20.6409 20.8505 20.8657 20.8092 21.2082 20.7464C20.9587 20.5899 20.806 20.4877 20.6477 20.3953C20.0095 20.0233 19.6702 19.4492 19.6043 18.7341C19.5316 17.9438 19.5599 17.153 19.7527 16.3744C20.0773 15.0625 21.0739 14.1983 22.2239 14.2371C23.5007 14.2796 24.5343 15.2343 24.7603 16.582C24.7948 16.7871 24.8201 16.9934 24.8496 17.1998C25.7508 17.9506 25.9355 18.9688 25.8875 20.0584C25.8604 20.6786 25.8438 20.7131 26.4609 20.6411C27.6639 20.5 28.5687 19.8095 29.3165 18.9189C30.0648 18.0282 30.3962 16.9676 30.4393 15.8028C30.5342 13.2189 29.7322 10.8777 28.5459 8.6357C28.4295 8.41519 28.3248 8.18852 28.2151 7.96494C27.3695 6.99421 27.3707 5.88736 27.6934 4.72815C27.3424 4.74417 27.128 4.57478 26.9635 4.33703C27.128 4.57478 27.3424 4.74478 27.6934 4.72815C28.2934 3.83442 29.1354 3.29115 30.1609 3.00597C31.1273 2.7368 32.111 2.69246 33.086 2.87909C34.4891 3.14764 35.7561 3.67489 36.5858 4.94743C36.8969 5.42417 37.2116 5.89536 37.4734 6.40167C37.5097 6.4725 37.5079 6.72258 37.7068 6.52363C37.6779 6.35979 37.6496 6.19533 37.6188 6.03149H37.62ZM11.2712 2.42083C10.6848 2.44054 10.1144 2.56188 9.53973 2.6555C9.43625 2.67213 9.39191 2.65735 9.30629 2.55633C9.92285 2.2459 10.5677 2.15535 11.2311 2.18677C11.4258 2.19601 11.7664 2.08144 11.7799 2.35369C11.7885 2.52615 11.4492 2.41467 11.2712 2.42083ZM18.1445 15.9513C17.7404 16.2691 17.2495 16.2987 16.7906 16.3516C15.8772 16.3159 15.138 16.0042 14.6668 15.2115C14.5769 15.06 14.5166 14.8795 14.4876 14.7052C14.4494 14.4742 14.4143 14.2057 14.7309 14.1275C15.0081 14.0591 15.1966 14.1675 15.3241 14.4453C15.6604 15.1783 16.4445 15.5337 17.2286 15.3322C17.4029 15.2873 17.5686 15.2097 17.7429 15.1647C17.9548 15.1105 18.195 15.0181 18.3292 15.2879C18.4611 15.5521 18.36 15.7794 18.1432 15.95L18.1445 15.9513ZM19.0308 10.5057C19.0105 10.4946 19.0037 10.4287 19.0136 10.3948C19.0327 10.3271 19.0924 10.3332 19.1485 10.3443C19.4225 10.3979 19.6732 10.4934 19.8734 10.7564C19.5002 10.8974 19.2821 10.64 19.0308 10.5057ZM21.1336 9.86143C21.5118 9.93657 21.8623 10.0425 21.9565 10.5396C21.5888 10.3653 21.3246 10.1577 21.1336 9.86143ZM23.1016 9.06563C22.8657 8.77798 22.6322 8.48972 22.3452 8.24889C22.2731 8.18852 22.2159 8.08381 22.2978 7.99265C22.4006 7.87809 22.4702 8.00559 22.5355 8.05609C22.9094 8.34497 23.2118 8.6936 23.4416 9.14139C23.263 9.21838 23.1663 9.14385 23.1016 9.06501V9.06563ZM23.4705 7.41305C23.3227 7.50113 23.3079 7.36008 23.2679 7.29356C23.0086 6.86609 22.7289 6.45587 22.3526 6.12018C22.2935 6.06721 22.2085 6.01609 22.2793 5.91815C22.3082 5.87812 22.3347 5.82084 22.4105 5.84116C22.4401 5.86149 22.4752 5.88366 22.5078 5.90892C22.9451 6.24399 23.2722 6.66653 23.5032 7.16421C23.5426 7.24921 23.5943 7.33975 23.4711 7.41305H23.4705ZM24.6864 7.7857C24.363 7.18515 24.0809 6.60555 23.6584 6.09739C24.1709 6.09 24.8866 7.23011 24.6864 7.7857ZM25.7206 8.13309C26.1733 8.41519 26.0538 9.46661 25.4988 10.1786C25.5463 9.50541 25.8789 8.86791 25.7206 8.13309ZM28.4892 14.4995C28.6007 14.2439 28.7147 14.0394 29.0325 14.1348C29.3744 14.2377 29.3497 14.5081 29.2998 14.7828C29.1391 15.679 28.2028 16.3744 27.1243 16.3664C26.7449 16.3448 26.3433 16.2494 25.9737 16.0375C25.7809 15.9266 25.6534 15.7634 25.6208 15.5472C25.5808 15.2817 25.6904 15.1148 25.9811 15.113C26.2244 15.1117 26.4375 15.2238 26.6611 15.2971C27.4391 15.5521 28.1634 15.2454 28.4892 14.5001V14.4995ZM33.7063 2.75097C32.9591 2.40666 32.1479 2.5434 31.3706 2.43376C31.3583 2.43191 31.3472 2.41898 31.3066 2.39126C31.4581 2.21017 31.6398 2.18738 31.816 2.18246C32.4615 2.16644 33.0891 2.27177 33.6933 2.50213C33.7666 2.52985 33.8744 2.54894 33.8634 2.65304C33.8566 2.71956 33.774 2.78177 33.7063 2.75036V2.75097Z" fill="white"/>
<path d="M20.947 15.8306C20.883 15.9187 20.7413 16.0221 20.8842 16.1404C21.0031 16.2383 21.1651 16.234 21.2575 16.1059C21.5611 15.6852 22.0182 15.5337 22.5707 15.3674C22.0262 15.15 21.268 15.389 20.947 15.8306Z" fill="white"/>
<path d="M34.7893 15.3702C34.8404 15.3438 36.1727 14.3342 36.9525 13.1264C37.6349 12.0688 37.7741 10.7919 37.8511 10.795C38.185 10.8092 38.5213 10.7993 38.8434 10.6995C39.431 10.5172 39.8357 10.147 39.9607 9.52679C40.0809 8.9324 39.933 8.42548 39.428 8.05222C39.2795 7.94258 39.1422 7.81816 39.1261 7.62229C39.0867 7.14863 38.9457 6.69591 38.8607 6.23149C38.8508 6.17728 38.6168 5.07844 38.2152 4.08862C37.8813 3.2651 37.4046 2.55061 37.0935 2.26542C36.1388 1.39017 34.6846 0.619623 33.6276 0.422521C32.4746 0.207557 30.4407 0.448391 28.8996 1.00336C27.5994 1.47147 26.713 2.21184 26.3755 2.60111C26.1297 2.88445 25.8852 3.00641 25.475 2.86104C22.7969 1.91064 20.1027 1.95868 17.4209 2.84564C17.0791 2.95836 16.9103 2.88938 16.6966 2.63499C16.3898 2.26912 15.3168 1.54107 14.2359 1.05386C13.639 0.784696 11.5115 0.104694 9.57809 0.412666C8.38685 0.602377 6.63819 1.46162 5.48145 2.66209C4.60373 3.57369 4.16148 4.8179 4.0155 5.33036C3.72231 6.35899 3.57756 7.46584 3.5289 7.71222C3.50057 7.85758 3.39155 7.94689 3.28191 8.03682C2.34013 8.80859 2.49473 10.0787 3.59604 10.6102C4.0309 10.8203 4.49778 10.8794 4.97576 10.8757C5.09155 10.8751 5.20365 10.8381 5.2751 11.0112C5.56768 11.7189 5.53626 11.8335 4.86673 12.2117C4.85441 12.2185 4.8421 12.2246 4.82978 12.2314C4.47623 12.4316 2.11839 14.3854 0.914223 16.6804C-0.103932 18.6187 -0.0281713 20.8749 0.0297274 21.7607C0.151068 23.6091 0.839077 29.0029 5.24061 31.1125C6.63634 31.7815 8.5858 32.321 9.81769 32.1141C10.7798 31.9527 10.9812 31.078 12.263 31.1526C13.5947 31.2302 15.0643 32.3149 16.4188 32.5951C17.5989 32.839 19.5065 33.0706 21.0063 32.7861C22.5172 32.4996 23.8095 31.5277 24.1914 30.8126C24.4525 30.3229 24.5794 29.3823 24.3915 28.6691C24.1827 27.8757 23.4621 27.173 23.6179 27.099C24.9403 26.4726 26.2628 25.8462 27.584 25.2173C27.6684 25.1773 27.9486 25.9719 28.5627 26.4517C29.3369 27.0559 30.5442 27.3781 31.4644 27.3473C32.2288 27.3214 35.2457 26.4967 35.8912 24.1622C36.153 23.2149 35.3276 21.7225 35.2001 20.6366C35.0609 19.4521 35.9583 18.583 35.9516 17.5605C35.9454 16.6822 34.6519 15.4429 34.7899 15.3709L34.7893 15.3702ZM23.3395 29.0744C23.0827 28.961 22.9219 28.7067 22.6281 28.719C22.4686 28.7258 22.3232 28.7461 22.232 28.897C22.1242 29.0744 22.2554 29.1822 22.3521 29.2961C22.4507 29.4125 22.5677 29.5148 22.6595 29.6355C22.9287 29.9903 22.8905 30.4153 22.5714 30.7263C22.2363 31.0528 21.8662 31.0626 21.4972 30.743C21.3402 30.6068 21.1997 30.4516 21.0494 30.3069C20.9078 30.1701 20.7482 30.0587 20.5548 30.0106C20.4051 29.973 20.2764 30.0217 20.1871 30.1443C20.0842 30.2859 20.1563 30.406 20.2592 30.5138C20.2783 30.5342 20.3004 30.5514 20.3201 30.5705C20.5111 30.7559 20.832 30.8908 20.6848 31.2363C20.5474 31.5591 20.2253 31.6139 19.9155 31.641C19.1837 31.7063 18.4779 31.556 17.7763 31.3731C16.0751 30.9296 14.4484 30.2933 12.906 29.4507C10.3622 28.0611 8.64986 25.9749 7.73642 23.2278C7.5541 23.3184 7.56641 23.4908 7.56333 23.6516C7.55718 24.0058 7.55841 24.3593 7.55656 24.7135C7.67359 24.8256 7.69884 24.9802 7.74196 25.1243C8.17928 26.5804 9.03298 27.7507 10.2156 28.6833C10.5266 28.9284 10.627 29.1391 10.2963 29.4261C10.5082 29.5831 10.7983 29.6102 10.9744 29.8203C11.0989 29.9687 11.2387 30.14 11.041 30.3278C10.8543 30.5052 10.7804 30.2712 10.6769 30.1966C10.4515 30.034 10.2421 29.8455 9.95012 29.8184C9.74624 29.7993 9.53682 29.8363 9.44566 30.0309C9.34896 30.2373 9.57131 30.3026 9.68649 30.4085C9.72407 30.4436 9.76225 30.4787 9.83986 30.5508C9.50787 30.6654 9.27196 30.5563 9.03975 30.4036C8.79769 30.2441 8.57348 30.0457 8.2766 29.9927C8.11337 29.9638 7.92305 29.9324 7.83373 30.1196C7.73949 30.3161 7.89471 30.4245 8.03453 30.5212C8.15649 30.6056 8.28276 30.6845 8.41395 30.7701C8.23964 30.9598 8.05794 30.8914 7.88609 30.8618C6.30065 30.5927 5.00778 29.7926 3.94959 28.6161C2.81256 27.3522 1.92191 25.9423 1.59176 24.2368C0.769476 20.9852 1.10209 17.9363 3.20369 15.2107C3.87137 14.3447 4.69981 13.6567 5.64837 13.1079C5.8929 12.9662 6.00192 12.989 6.05366 13.2693C6.08877 13.4596 6.1442 13.6462 6.19101 13.8347C6.32898 14.0934 6.56058 14.2141 6.83714 14.2036C7.0638 14.195 7.15928 14.3053 7.22765 14.4876C7.40319 14.9551 7.6545 15.329 8.23163 15.3111C8.33881 15.308 8.3924 15.4066 8.45091 15.483C8.85928 15.4688 9.16479 15.8069 9.55037 15.8248C10.061 15.8482 10.1737 16.1426 10.2796 16.5781C11.0175 19.6049 12.9824 21.5691 15.7634 22.8022C16.2069 22.9987 16.6553 23.2075 17.1369 23.2796C17.6198 23.3523 17.8712 23.6233 17.9919 24.0637C18.0701 24.1259 18.16 24.1782 18.1841 24.2873C18.5345 24.7856 18.8696 25.2968 19.2398 25.7797C19.889 26.6266 20.6706 27.2826 21.7602 27.5043C22.2949 27.6127 22.7112 27.9515 23.0697 28.35C23.2453 28.5447 23.3906 28.7639 23.3407 29.0731L23.3395 29.0744ZM26.9446 21.6547C26.8042 21.7847 26.4513 21.76 26.4931 21.9436C26.5412 22.1536 26.8602 22.105 27.0727 22.1321C27.0998 22.1358 27.1282 22.1327 27.1559 22.1321C27.6359 22.1152 27.8232 22.3536 27.7176 22.8472C27.6801 23.0233 27.6123 23.2063 27.6308 23.3787C27.6868 23.9041 27.3622 24.0908 26.9545 24.2651C25.6154 24.8385 24.2856 25.4329 22.9521 26.0205C22.8504 26.0655 22.7525 26.1185 22.6546 26.1702C21.8206 26.6094 21.3401 26.5465 20.6367 25.8943C20.0091 25.3122 19.5287 24.6186 19.124 23.8697C18.9626 23.5709 19.0291 23.4391 19.3845 23.4625C19.5588 23.4742 19.7596 23.4822 19.8274 23.2494C19.8951 23.0166 19.7116 22.9346 19.5718 22.8269C17.9383 22.5756 16.3855 22.0994 14.954 21.247C12.7484 19.9338 11.5349 17.9775 11.1635 15.4713C11.1216 15.1885 11.0293 15.0869 10.7478 15.0253C8.5045 14.5393 6.72935 12.5652 6.45895 10.3072C6.42754 10.0436 6.47311 9.85077 6.67822 9.68262C6.76076 9.61487 6.83652 9.51755 6.87101 9.41776C6.93138 9.24222 6.94431 9.04389 6.7583 8.9324C6.56243 8.81537 6.42261 8.93918 6.30188 9.09316C5.80482 9.72574 4.90554 9.89758 4.22677 9.50831C4.00996 9.38389 3.9459 9.23668 4.09988 9.04327C4.46021 8.58932 4.67887 8.07069 4.8347 7.52004C4.9197 6.98602 4.98376 6.44768 5.09278 5.91859C5.62188 3.34887 7.53685 1.62854 10.1651 1.38524C11.9335 1.2214 13.5411 1.69937 14.999 2.70213C15.7609 3.16778 16.2592 3.87858 16.7563 4.59061C19.5151 3.09325 22.3725 3.0526 25.2914 4.02887C25.6561 4.15083 25.9973 4.34485 26.3496 4.505C26.5048 4.36395 26.6601 4.22289 26.8153 4.08246C27.7712 2.69043 29.1435 1.92604 30.7413 1.54292C34.0859 0.74158 36.9944 2.65101 37.6208 6.03254C37.651 6.19638 37.6793 6.36084 37.7089 6.52468C37.8339 6.80801 37.8345 7.11721 37.8887 7.41533C37.9879 7.96537 38.1228 8.49816 38.512 8.9324C38.7529 9.20095 38.6537 9.40298 38.3599 9.55758C37.8327 9.83476 37.0024 9.70479 36.5891 9.27179C36.5028 9.18186 36.4228 9.08577 36.3365 8.99584C36.2103 8.86403 36.0686 8.86095 35.9257 8.96381C35.7828 9.06668 35.7113 9.23606 35.8241 9.3611C36.6254 10.2505 36.0624 11.0919 35.7563 11.9444C35.5457 12.7999 34.9494 13.382 34.3193 13.9283C33.7693 14.4057 33.1379 14.7574 32.4345 14.96C32.1586 15.0395 32.0366 15.1811 31.9978 15.478C31.8395 16.6995 31.5223 17.8704 30.798 18.8971C29.834 20.2645 28.5177 21.1367 26.9471 21.6547H26.9446ZM34.2195 19.348C33.8666 18.9353 33.5371 18.5504 33.2075 18.1648C32.83 17.8568 32.7597 17.5378 32.9421 16.9538C33 16.628 33.0579 16.3022 33.117 15.9714C33.9996 16.3748 34.5177 17.9363 34.2201 19.348H34.2195ZM34.145 24.6359C34.0637 24.8416 33.9442 25.0209 33.6941 24.9783C33.4521 24.9371 33.5451 24.7178 33.5334 24.5694C33.4952 24.0895 33.4453 24.0483 32.8534 24.0668V24.0655C32.8263 24.0939 32.7992 24.1222 32.7715 24.1499C32.5799 24.456 32.623 24.8231 32.5121 25.1508C32.3625 25.5931 32.1426 25.9688 31.6393 26.0599C31.1866 26.1419 30.9784 25.9306 31.0443 25.4754C31.0684 25.311 31.1084 25.1484 31.1349 24.9839C31.1755 24.7344 31.0431 24.5848 30.8269 24.5059C30.6113 24.4277 30.4715 24.5724 30.3859 24.7307C30.2683 24.9482 30.1796 25.1841 30.1032 25.42C30.0625 25.5456 30.036 25.6011 29.919 25.4964L29.8457 25.399C29.5464 25.2235 29.6154 24.9291 29.6203 24.6642C29.6246 24.4289 29.6677 24.1955 29.6806 23.9602C29.6905 23.781 29.7145 23.5832 29.4441 23.5592C29.2088 23.5383 29.0345 23.6079 28.9581 23.8499C28.8898 24.0674 28.9255 24.3162 28.7358 24.5675C28.495 24.1296 28.5559 23.6947 28.6052 23.2907C28.6933 22.578 28.9939 21.9596 29.6301 21.5568C30.5922 20.9476 31.2895 20.0902 31.8826 19.1392C32.2159 18.6052 32.2645 18.5966 32.6396 19.1133C32.7209 19.2248 32.7868 19.348 32.8595 19.4663C33.6991 20.4863 34.2325 21.6362 34.3378 22.9667C34.3988 23.537 34.355 24.0957 34.1432 24.6347L34.145 24.6359Z" fill="#002EB4"/>
<path d="M24.8502 17.2004C24.7948 18.0929 24.7893 18.9916 24.5035 19.8539C24.2066 20.2068 23.8167 20.447 23.4397 20.7063C23.5118 20.8751 23.6627 20.8067 23.7662 20.8492C23.9331 20.9176 24.1314 20.9478 24.1339 21.1825C24.1364 21.4264 24.0304 21.6136 23.7877 21.6937C23.4865 21.7935 23.1638 21.8095 22.8971 21.6506C22.4684 21.3956 22.081 21.4233 21.667 21.6629C21.5537 21.7288 21.4016 21.7393 21.2648 21.7516C20.5953 21.8113 20.3508 21.5607 20.4154 20.893C20.6409 20.8517 20.8657 20.8104 21.2082 20.7476C20.9587 20.5912 20.806 20.4889 20.6477 20.3965C20.0095 20.0245 19.6701 19.4504 19.6042 18.7353C19.5316 17.9451 19.5599 17.1542 19.7527 16.3756C20.0779 15.0637 21.0739 14.1995 22.2239 14.2383C23.5007 14.2808 24.5343 15.2355 24.7603 16.5832C24.7948 16.7883 24.8201 16.9947 24.8496 17.201L24.8502 17.2004ZM22.5706 15.3673C22.0261 15.1499 21.2679 15.3889 20.947 15.8305C20.8829 15.9186 20.7413 16.0221 20.8842 16.1404C21.0031 16.2383 21.165 16.234 21.2574 16.1059C21.5611 15.6852 22.0181 15.533 22.5706 15.3673Z" fill="#002EB4"/>
<path d="M16.7906 16.3515C15.8772 16.3158 15.138 16.0041 14.6668 15.2114C14.5769 15.0598 14.5172 14.8794 14.4876 14.7051C14.4494 14.4741 14.4143 14.2055 14.7309 14.1273C15.0081 14.0589 15.1966 14.1673 15.3241 14.4451C15.6604 15.1781 16.4445 15.5335 17.2286 15.3321C17.4029 15.2871 17.5686 15.2095 17.7429 15.1646C17.9548 15.1104 18.195 15.018 18.3293 15.2877C18.4611 15.552 18.36 15.7793 18.1432 15.9499C17.7392 16.2677 17.2483 16.2973 16.7894 16.3502L16.7906 16.3515Z" fill="#002EB4"/>
<path d="M27.1237 16.3659C26.7443 16.3444 26.3427 16.2489 25.9731 16.037C25.7803 15.9262 25.6528 15.7629 25.6202 15.5467C25.5802 15.2813 25.6898 15.1143 25.9805 15.1125C26.2238 15.1113 26.4369 15.2234 26.6605 15.2967C27.4385 15.5517 28.1628 15.2449 28.4887 14.4996C28.6008 14.244 28.7141 14.0395 29.0319 14.135C29.3738 14.2379 29.3491 14.5083 29.2998 14.783C29.1391 15.6792 28.2029 16.3746 27.1243 16.3666L27.1237 16.3659Z" fill="#002EB4"/>
<path d="M22.4092 5.84115C22.4388 5.86148 22.4739 5.88365 22.5065 5.9089C22.9439 6.24398 23.2709 6.66652 23.5019 7.1642C23.5413 7.2492 23.5931 7.33974 23.4699 7.41304C23.322 7.50112 23.3073 7.36007 23.2672 7.29355C23.0079 6.86608 22.7283 6.45586 22.3519 6.12017C22.2928 6.0672 22.2078 6.01608 22.2786 5.91814C22.3076 5.87811 22.3341 5.82082 22.4098 5.84115H22.4092Z" fill="#002EB4"/>
<path d="M25.4976 10.1786C25.545 9.50538 25.8776 8.86788 25.7193 8.13306C26.172 8.41516 26.0525 9.46657 25.4976 10.1786Z" fill="#002EB4"/>
<path d="M24.6852 7.78575C24.3618 7.1852 24.0797 6.6056 23.6572 6.09745C24.1696 6.09006 24.886 7.23017 24.6852 7.78575Z" fill="#002EB4"/>
<path d="M23.4403 9.14203C23.2617 9.21902 23.165 9.14449 23.1003 9.06565C22.8644 8.778 22.631 8.48974 22.344 8.24891C22.2719 8.18854 22.2146 8.08383 22.2965 7.99267C22.3994 7.87811 22.469 8.00561 22.5343 8.05612C22.9082 8.34499 23.2106 8.69362 23.4403 9.14141V9.14203Z" fill="#002EB4"/>
<path d="M21.1331 9.86133C21.5112 9.93647 21.8617 10.0424 21.956 10.5395C21.5882 10.3652 21.324 10.1576 21.1331 9.86133Z" fill="#002EB4"/>
<path d="M19.8728 10.7566C19.4995 10.8977 19.2815 10.6402 19.0302 10.5059C19.0099 10.4948 19.0031 10.4289 19.0129 10.395C19.032 10.3273 19.0918 10.3334 19.1478 10.3445C19.4226 10.3981 19.6726 10.4936 19.8728 10.7566Z" fill="#002EB4"/>
<path d="M12.6391 6.81305C12.1371 6.76439 11.6407 6.78656 11.1504 6.91837C11.0303 6.9504 10.9052 6.97258 10.7814 6.98058C10.5702 6.99475 10.3854 6.93623 10.3324 6.70218C10.2801 6.47181 10.3645 6.29134 10.585 6.18971C10.9564 6.01909 11.3524 5.94888 11.7559 5.91562C12.4722 5.85648 13.1738 5.93225 13.8427 6.19895C14.4321 6.43362 14.4956 6.72312 14.0971 7.2054C12.79 8.78838 12.0096 10.6029 11.7343 12.6343C11.6967 12.9134 11.6019 13.1265 11.2853 13.1289C10.9601 13.1314 10.8757 12.901 10.8412 12.6306C10.7876 12.2093 10.904 11.801 10.9287 11.3858C11.2582 9.83856 11.8723 8.42004 12.8368 7.15982C13.0401 6.89435 13.0025 6.75884 12.6391 6.81366V6.81305Z" fill="#002EB4"/>
<path d="M12.6392 6.81302C13.0032 6.7582 13.0401 6.89432 12.8369 7.15918C11.8723 8.42002 11.2582 9.83792 10.9287 11.3852C10.8271 10.9109 10.6078 11.2349 10.4248 11.3106C10.4138 11.0292 10.3134 10.7778 10.1588 10.5463C10.3004 10.4335 10.3183 10.2598 10.3614 10.1046C10.7088 8.86719 11.3913 7.86074 12.4187 7.08835C12.5154 7.01567 12.6416 6.96577 12.6385 6.81302H12.6392Z" fill="#002EB4"/>
<path d="M10.1593 10.5471C10.3139 10.7787 10.4143 11.03 10.4254 11.3115C10.1138 11.6367 9.82549 11.6447 9.5668 11.2998C9.06665 10.6339 8.80919 9.88802 8.89603 9.04356C8.91513 8.85939 8.97056 8.69001 9.08451 8.54464C9.23111 8.35801 9.41404 8.23236 9.66042 8.32105C9.93636 8.42022 9.87169 8.65367 9.81995 8.85015C9.65611 9.47472 9.81625 10.0272 10.1593 10.5471Z" fill="#002EB4"/>
<path d="M5.62049 21.9241C5.93092 21.8502 6.00915 22.0301 6.09846 22.1798C6.39411 22.675 6.51053 23.2306 6.62756 23.7855C6.65096 23.8952 6.63002 24.0091 6.53578 24.0307C6.41506 24.0584 6.39165 23.9186 6.37132 23.8329C6.21734 23.1714 6.01592 22.529 5.61987 21.9241H5.62049Z" fill="#002EB4"/>
<path d="M9.49229 20.7852C9.77685 21.0599 9.76454 21.3999 9.81504 21.7177C9.82736 21.7941 9.79533 21.86 9.71095 21.8563C9.66537 21.8544 9.58961 21.8175 9.5816 21.7836C9.50645 21.467 9.30627 21.1572 9.49229 20.7852Z" fill="#002EB4"/>
<path d="M32.6518 12.4669C32.6352 12.5044 32.6149 12.5408 32.6025 12.5802C32.512 12.8691 32.4042 13.1598 32.0297 13.1222C31.678 13.0871 31.6238 12.7952 31.5899 12.5094C31.3947 10.8636 30.783 9.3816 29.8209 8.04131C29.6047 7.74011 29.3879 7.43152 29.0221 7.28431L29.0202 7.28555C28.995 7.25536 28.9697 7.22457 28.9438 7.19439C28.5195 6.62649 28.5829 6.38196 29.2352 6.16145C30.2811 5.80667 31.3312 5.81652 32.3808 6.15652C32.6604 6.24706 32.8656 6.40536 32.7966 6.72565C32.7264 7.05395 32.4424 6.98497 32.217 6.96341C31.8203 6.92522 31.4267 6.86239 31.0313 6.80942C30.7479 6.80942 30.4652 6.80942 30.1301 6.80942C30.4991 7.29047 30.8379 7.70747 31.1495 8.14294C31.8665 9.14508 32.1424 10.3339 32.5336 11.4733C32.573 11.8041 32.613 12.1355 32.6524 12.4662L32.6518 12.4669Z" fill="#002EB4"/>
<path d="M32.5329 11.4737C32.1417 10.3342 31.8658 9.14547 31.1488 8.14333C30.8372 7.70724 30.4984 7.29025 30.1295 6.80981C30.4645 6.80981 30.7479 6.80981 31.0306 6.80981C31.5122 7.36108 32.0395 7.87601 32.3622 8.5517C32.5249 8.89109 32.6524 9.24033 32.7534 9.60189C32.8174 9.83163 32.9228 10.0404 33.0977 10.2086C32.9874 10.5948 32.7823 10.9607 32.8544 11.3844C32.738 11.382 32.6234 11.3844 32.5323 11.4744L32.5329 11.4737Z" fill="#002EB4"/>
<path d="M32.8551 11.3842C32.783 10.9604 32.9875 10.5939 33.0984 10.2084C33.293 9.75749 33.2339 9.28568 33.2092 8.81756C33.1969 8.58227 33.1981 8.35375 33.4907 8.30386C33.7593 8.25828 33.9459 8.38393 34.0284 8.64633C34.3302 9.6072 34.0685 10.4781 33.5591 11.2863C33.4069 11.5277 33.1322 11.6552 32.8557 11.3842H32.8551Z" fill="#002EB4"/>
<path d="M31.3054 2.39081C31.4569 2.20972 31.6386 2.18693 31.8147 2.182C32.4603 2.16599 33.0879 2.27132 33.6921 2.50168C33.7654 2.5294 33.8732 2.54849 33.8621 2.65259C33.8554 2.71911 33.7728 2.78132 33.7051 2.7499C32.9579 2.40559 32.1467 2.54233 31.3694 2.43269C31.3571 2.43085 31.346 2.41791 31.3054 2.39019V2.39081Z" fill="#002EB4"/>
<path d="M9.30634 2.55644C9.9229 2.246 10.5678 2.15546 11.2312 2.18687C11.4258 2.19611 11.7664 2.08155 11.78 2.35379C11.7886 2.52626 11.4492 2.41477 11.2712 2.42093C10.6848 2.44064 10.1145 2.56198 9.53978 2.65561C9.4363 2.67224 9.39195 2.65745 9.30634 2.55644Z" fill="#002EB4"/>
</g>
<defs>
<clipPath id="clip0_301_264">
<rect width="40" height="32.5834" fill="white" transform="translate(0 0.333252)"/>
</clipPath>
</defs>
</svg>
